<svg width="27" height="27" viewBox="0 0 27 27" fill="none" xmlns="http://www.w3.org/2000/svg">
<path d="M10.7391 0.214773C5.74511 1.35026 1.96917 4.83781 0.466917 9.66361C0.101504 10.8802 0 11.6507 0 13.5161C0 17.4498 1.17744 20.3088 3.93835 23.0664C6.69925 25.824 9.56165 27 13.5 27C17.4383 27 20.3008 25.824 23.0617 23.0664C25.8226 20.3088 27 17.4498 27 13.5161C27 9.58251 25.8226 6.72352 23.0617 3.96592C20.4632 1.39081 17.682 0.17422 14.0075 0.0120084C12.7083 -0.0285446 11.5308 0.0322848 10.7391 0.214773ZM12.3429 0.985279C12.2617 1.12721 11.7338 1.918 11.206 2.72906C9.41955 5.40555 8.40451 8.16315 7.9985 11.306L7.75489 13.1106H4.24286C0.162406 13.1106 0.487218 13.3337 1.01504 10.8194C2.00977 6.07468 6.00902 2.08021 10.7594 1.04611C12.3632 0.701409 12.5459 0.681132 12.3429 0.985279ZM17.6211 1.45164C19.509 2.10049 21.0113 3.0332 22.5135 4.51339C24.5233 6.52076 25.8632 9.21753 26.188 11.9346L26.3301 13.1106H22.7774H19.2248L19.0827 11.8332C18.697 8.44702 17.1541 4.37145 15.3474 1.97883C14.8805 1.37053 14.515 0.843344 14.515 0.802791C14.515 0.640579 16.3624 1.02583 17.6211 1.45164ZM14.4947 2.20187C16.2609 4.59449 17.5398 7.57513 18.0677 10.6166C18.5549 13.4148 19.1233 13.1106 13.5 13.1106C7.89699 13.1106 8.44511 13.4148 8.93233 10.6166C9.25714 8.73089 9.98797 6.54103 10.8609 4.79726C11.5308 3.47929 13.2158 1.14749 13.5 1.14749C13.6015 1.14749 14.0481 1.63413 14.4947 2.20187ZM7.91729 15.1788C8.30301 18.5853 9.84586 22.6608 11.6526 25.0535C12.1195 25.6618 12.4444 26.1889 12.4038 26.2295C12.2008 26.4323 9.23684 25.6212 7.95789 24.9926C4.40526 23.2691 1.80677 19.9641 0.994737 16.1724C0.487218 13.7189 0.182707 13.9217 4.24286 13.9217H7.77519L7.91729 15.1788ZM18.2707 15.1788C17.9256 18.2 16.7075 21.5456 15.1038 23.9585C13.6827 26.0673 13.5812 26.1281 12.8504 25.2765C11.1045 23.2286 9.48045 19.5383 8.93233 16.4157C8.44511 13.6175 7.87669 13.9217 13.5203 13.9217H18.4128L18.2707 15.1788ZM26.2895 14.3678C26.2692 15.4221 25.6398 17.6931 24.9902 19.0516C23.2647 22.6203 19.9556 25.2157 16.0782 26.0065C15.3068 26.1687 14.6368 26.27 14.5962 26.2498C14.5556 26.2092 14.9211 25.6212 15.4083 24.9318C17.3571 22.1336 18.5955 18.9908 19.0015 15.7871L19.2451 13.9217H22.7571C26.2895 13.9217 26.2895 13.9217 26.2895 14.3678Z" fill="black"/>
</svg>
