<svg width="22" height="22" viewBox="0 0 22 22" fill="none" xmlns="http://www.w3.org/2000/svg">
<path d="M8.75038 0.175001C4.6812 1.10021 1.60451 3.94192 0.380451 7.87405C0.0827068 8.86535 0 9.49317 0 11.0132C0 14.2183 0.959398 16.5479 3.20902 18.7948C5.45865 21.0417 7.79098 22 11 22C14.209 22 16.5414 21.0417 18.791 18.7948C21.0406 16.5479 22 14.2183 22 11.0132C22 7.80797 21.0406 5.47843 18.791 3.23149C16.6737 1.13325 14.4075 0.141958 11.4135 0.00978661C10.3549 -0.0232563 9.39549 0.0263081 8.75038 0.175001ZM10.0571 0.802822C9.99098 0.918472 9.5609 1.56281 9.13083 2.22368C7.67519 4.40452 6.84812 6.65146 6.51729 9.2123L6.3188 10.6827H3.45714C0.132331 10.6827 0.396992 10.8645 0.827068 8.81578C1.63759 4.94974 4.89624 1.69499 8.76692 0.852386C10.0737 0.57152 10.2226 0.554998 10.0571 0.802822ZM14.3579 1.18282C15.8962 1.71151 17.1203 2.4715 18.3444 3.67758C19.982 5.31321 21.0737 7.51058 21.3383 9.72447L21.4541 10.6827H18.5594H15.6647L15.5489 9.64186C15.2346 6.88276 13.9774 3.56192 12.5053 1.61238C12.1248 1.11673 11.8271 0.68717 11.8271 0.654127C11.8271 0.521955 13.3323 0.835865 14.3579 1.18282ZM11.8105 1.79412C13.2496 3.74366 14.2917 6.17233 14.7218 8.65057C15.1188 10.9305 15.582 10.6827 11 10.6827C6.43459 10.6827 6.8812 10.9305 7.27819 8.65057C7.54286 7.11406 8.13835 5.32973 8.84962 3.90888C9.39549 2.83498 10.7684 0.934994 11 0.934994C11.0827 0.934994 11.4466 1.33151 11.8105 1.79412ZM6.45113 12.3679C6.76541 15.1435 8.02256 18.4644 9.49474 20.4139C9.87519 20.9096 10.1398 21.3391 10.1068 21.3722C9.94135 21.5374 7.52632 20.8765 6.48421 20.3644C3.58947 18.96 1.47218 16.267 0.810526 13.1775C0.396992 11.1784 0.148872 11.3436 3.45714 11.3436H6.33534L6.45113 12.3679ZM14.8872 12.3679C14.606 14.8296 13.6135 17.5557 12.3068 19.5218C11.1489 21.24 11.0662 21.2896 10.4707 20.5957C9.04812 18.927 7.72481 15.9201 7.27819 13.3757C6.8812 11.0958 6.41804 11.3436 11.0165 11.3436H15.003L14.8872 12.3679ZM21.4211 11.7071C21.4045 12.5662 20.8917 14.4166 20.3624 15.5235C18.9564 18.4313 16.2601 20.5461 13.1008 21.1904C12.4722 21.3226 11.9263 21.4052 11.8932 21.3887C11.8601 21.3557 12.1579 20.8765 12.5549 20.3148C14.1429 18.0348 15.1519 15.474 15.4827 12.8636L15.6812 11.3436H18.5429C21.4211 11.3436 21.4211 11.3436 21.4211 11.7071Z" fill="white"/>
</svg>
