<svg width="13" height="20" viewBox="0 0 13 20" fill="none" xmlns="http://www.w3.org/2000/svg">
<path d="M11.694 19.3477C11.5231 19.3485 11.3537 19.3214 11.1955 19.268C11.0373 19.2145 10.8934 19.1357 10.772 19.0361L0.384092 10.4391C0.262387 10.3392 0.165786 10.2204 0.0998635 10.0894C0.0339407 9.95845 0 9.81799 0 9.67612C0 9.53426 0.0339407 9.3938 0.0998635 9.26285C0.165786 9.1319 0.262387 9.01304 0.384092 8.91314L10.772 0.31616C11.0166 0.113804 11.3482 0.00012207 11.694 0.00012207C12.0398 0.00012207 12.3714 0.113804 12.6159 0.31616C12.8604 0.518515 12.9978 0.792968 12.9978 1.07914C12.9978 1.36532 12.8604 1.63977 12.6159 1.84212L3.1369 9.67612L12.6159 17.5101C12.7376 17.61 12.8342 17.7289 12.9001 17.8598C12.9661 17.9908 13 18.1312 13 18.2731C13 18.415 12.9661 18.5554 12.9001 18.6864C12.8342 18.8173 12.7376 18.9362 12.6159 19.0361C12.4946 19.1357 12.3507 19.2145 12.1925 19.268C12.0343 19.3214 11.8649 19.3485 11.694 19.3477Z" fill="#1B212F"/>
</svg>
