<svg width="35" height="815" viewBox="0 0 35 815" fill="none" xmlns="http://www.w3.org/2000/svg">
<path d="M34.5689 0.485675C34.246 24.9249 28.8542 36.5994 23.937 48.2898C19.032 59.0699 14.6048 69.8635 14.3297 90.6792C14.0547 111.495 18.1945 122.432 22.8127 133.369C27.4187 145.217 32.4998 157.066 32.1768 181.506C31.8539 205.945 26.4622 217.619 21.545 229.31C16.64 240.09 12.2127 250.883 11.9377 271.699C11.6626 292.515 15.8024 303.452 20.4207 314.389C25.0267 326.236 30.1077 338.086 29.7848 362.525C29.4618 386.965 24.0701 398.639 19.1529 410.33C14.2479 421.11 9.82069 431.903 9.54562 452.719C9.27055 473.535 13.4103 484.472 18.0286 495.409C22.6346 507.256 27.7157 519.106 27.3927 543.545C27.0698 567.985 21.678 579.659 16.7608 591.35C11.8558 602.13 7.42862 612.923 7.15356 633.739C6.87849 654.555 11.0183 665.492 15.6366 676.429C20.2426 688.276 25.3236 700.126 25.0007 724.565C24.6777 749.005 19.286 760.679 14.3688 772.369C9.46377 783.15 5.03656 793.943 4.7615 814.759L0 814.68C0.32295 790.24 5.71469 778.566 10.6319 766.876C15.5369 756.095 19.9641 745.302 20.2392 724.486C20.5142 703.67 16.3744 692.733 11.7562 681.796C7.15017 669.949 2.06911 658.099 2.39206 633.66C2.71501 609.22 8.10675 597.546 13.024 585.856C17.929 575.076 22.3562 564.282 22.6312 543.466C22.9063 522.651 18.7665 511.713 14.1482 500.776C9.54223 488.929 4.46117 477.079 4.78412 452.64C5.10707 428.201 10.4988 416.526 15.416 404.836C20.321 394.056 24.7482 383.262 25.0233 362.446C25.2984 341.631 21.1586 330.693 16.5403 319.756C11.9343 307.909 6.85324 296.059 7.17619 271.62C7.49914 247.181 12.8909 235.506 17.8081 223.816C22.7131 213.036 27.1403 202.242 27.4153 181.426C27.6904 160.611 23.5506 149.674 18.9323 138.736C14.3264 126.889 9.2453 115.039 9.56825 90.6C9.8912 66.1608 15.2829 54.4864 20.2001 42.7959C25.1051 32.0158 29.5323 21.2222 29.8074 0.406554L34.5689 0.485675Z" fill="#1B212F"/>
</svg>
