<svg width="14" height="20" viewBox="0 0 14 20" fill="none" xmlns="http://www.w3.org/2000/svg">
<path d="M1.43232 0.00443424C1.60321 0.00418822 1.77244 0.0318621 1.93029 0.0858709C2.08815 0.139878 2.23152 0.219156 2.3522 0.31916L12.684 8.95083C12.805 9.05114 12.9009 9.17032 12.9659 9.30149C13.031 9.43266 13.064 9.57323 13.0631 9.71509C13.0622 9.85695 13.0273 9.9973 12.9605 10.128C12.8938 10.2588 12.7964 10.3773 12.674 10.4768L2.23013 19.0389C1.9843 19.2404 1.65194 19.353 1.30615 19.3518C0.960362 19.3507 0.62948 19.2359 0.386291 19.0327C0.143102 18.8295 0.00752723 18.5546 0.00939338 18.2685C0.0112595 17.9823 0.150414 17.7083 0.396242 17.5068L9.92623 9.70459L0.498413 1.83893C0.37736 1.73863 0.281534 1.61945 0.216466 1.48828C0.151398 1.35711 0.118374 1.21653 0.1193 1.07467C0.120225 0.932811 0.15508 0.792467 0.221856 0.661735C0.288631 0.531006 0.386008 0.412478 0.508364 0.312986C0.630344 0.213795 0.774748 0.13548 0.933301 0.0825325C1.09185 0.0295832 1.26143 0.00304378 1.43232 0.00443424Z" fill="#1B212F"/>
</svg>
